<!-- 
    Icons made by https://www.flaticon.com/authors/photo3idea-studio from www.flaticon.com
    Icon: https://www.flaticon.com/free-icon/pencil_1116804
-->
<svg height="512pt" viewBox="-3 0 512 512.00095" width="512pt" xmlns="http://www.w3.org/2000/svg"><path d="m258.828125 10.257812-62.9375 83.917969 41.957031 83.917969h41.960938l41.957031-83.917969zm0 0" fill="#a8d6da"/><path d="m258.828125 188.582031c-5.792969 0-10.488281-4.695312-10.488281-10.488281v-62.941406c0-5.792969 4.695312-10.488282 10.488281-10.488282s10.492187 4.695313 10.492187 10.488282v62.941406c0 5.792969-4.699218 10.488281-10.492187 10.488281zm0 0" fill="#6fbbc6"/><path d="m279.808594 104.664062c0 11.585938-9.394532 20.980469-20.980469 20.980469s-20.976563-9.394531-20.976563-20.980469c0-11.585937 9.390626-20.980468 20.976563-20.980468s20.980469 9.394531 20.980469 20.980468zm0 0" fill="#6fbbc6"/><path d="m216.871094 241.03125 10.488281 10.488281h62.9375l10.492187-10.488281-20.980468-62.9375h-41.960938zm0 0" fill="#da922a"/><path d="m62.1875 235.648438 18.316406 5.382812 52.449219-31.46875-.683594-20.089844-40.605469-23.496094-17.316406-26.277343-35.035156 23.089843 17.316406 26.273438zm0 0" fill="#b9b9b9"/><path d="m39.3125 162.789062 35.035156-23.089843-23.078125-35.035157-40.816406 14.328126zm0 0" fill="#ffb1b5"/><path d="m281.882812 492.878906c-19.351562 12.746094-45.375 7.394532-58.125-11.953125l-161.59375-245.265625 70.078126-46.167968 161.589843 245.261718c12.75 19.351563 7.398438 45.375-11.949219 58.125zm0 0" fill="#a8a8a8"/><path d="m216.871094 241.03125h83.917968v220.28125c0 23.175781-18.785156 41.960938-41.960937 41.960938-23.171875 0-41.957031-18.785157-41.957031-41.960938zm0 0" fill="#fbb540"/><path d="m333.539062 254.28125 30.175782-50.054688 71.867187 43.328126-30.175781 50.054687zm0 0" fill="#744630"/><path d="m491.699219 73.195312-81.292969 38.308594c-13.902344 6.546875-25.550781 17.0625-33.484375 30.21875-6.242187 10.347656-9.988281 22.003906-10.941406 34.050782l-2.253907 28.46875 71.863282 43.332031 24.125-15.273438c10.210937-6.460937 18.773437-15.214843 25.007812-25.5625 7.941406-13.15625 11.804688-28.371093 11.097656-43.71875zm0 0" fill="#d9d9d9"/><path d="m493.695312 116.328125-39.003906 8.71875c-23.644531 5.773437-41.949218 24.484375-47.203125 48.25-1.261719 5.652344 2.292969 11.257813 7.941407 12.527344.753906.171875 1.523437.261719 2.296874.261719 4.910157-.003907 9.15625-3.414063 10.226563-8.203126 3.503906-15.910156 15.714844-28.464843 31.523437-32.402343l35.148438-7.867188zm0 0" fill="#b9b9b9"/><path d="m336.636719 249.160156 71.867187 43.332032-113.742187 188.648437c-11.964844 19.84375-37.75 26.230469-57.597657 14.265625-19.84375-11.964844-26.230468-37.75-14.265624-57.597656 0 0 113.738281-188.648438 113.738281-188.648438zm0 0" fill="#8f563b"/><path d="m497.15625 64.214844c-3-1.828125-6.722656-2.019532-9.894531-.503906l-81.324219 38.308593c-28.671875 13.503907-47.914062 41.332031-50.425781 72.925781l-2.097657 25.984376-42.136718 69.984374v-29.882812c0-.09375-.050782-.179688-.050782-.285156-.015624-1.027344-.179687-2.050782-.496093-3.03125l-19.605469-58.816406 40.03125-80.035157c1.757812-3.5625 1.351562-7.816406-1.050781-10.984375l-62.9375-83.917968c-3.8125-4.632813-10.660157-5.296876-15.296875-1.484376-.542969.445313-1.039063.945313-1.484375 1.484376l-62.941407 83.917968c-2.382812 3.179688-2.769531 7.429688-.996093 10.984375l40.03125 80.035157-19.605469 58.816406c-.316406.980468-.480469 2.003906-.496094 3.03125v.285156 41.863281l-65.347656-99.191406c-.085938-.113281-.210938-.175781-.285156-.28125-.632813-.875-1.390625-1.644531-2.253906-2.289063-.199219-.144531-.378907-.3125-.589844-.449218-.207032-.136719-.238282-.210938-.375-.285156l-38.457032-22.238282-15.964843-24.230468-23.078125-35.035157c-2.648438-4.015625-7.691406-5.714843-12.230469-4.121093l-40.816406 14.316406c-5.457031 1.941406-8.3125 7.9375-6.371094 13.398437.28125.796875.660156 1.558594 1.128906 2.265625l28.855469 43.804688 15.914062 24.21875 5.246094 44.121094c.023438.140624.058594.28125.101563.417968.046875.222656.101562.445313.167969.660156.238281 1.113282.65625 2.175782 1.238281 3.148438.074219.105469.074219.242188.148437.347656.074219.101563 155.992188 236.425782 156.746094 237.066406 7.671875 20.152344 26.996094 33.46875 48.558594 33.460938 4.28125 0 8.546875-.523438 12.703125-1.550781 13.515625-3.3125 25.144531-11.894531 32.296875-23.832031l139.511718-231.445313 22.03125-13.941406c11.570313-7.359375 21.285157-17.292969 28.382813-29.027344 9.015625-14.925781 13.394531-32.195313 12.589844-49.613281l-4.09375-89.8125c-.125-3.507813-1.992188-6.722656-4.980469-8.5625zm-75.976562 186.925781-16.230469 26.949219-53.90625-32.519532 16.25-26.945312zm-193.820313 158.953125v-158.574219h62.9375v54.191407zm18.054687-221.511719h26.832032l13.980468 41.957031h-54.796874zm13.414063-73.429687c-5.792969 0-10.488281-4.695313-10.488281-10.488282 0-5.792968 4.695312-10.488281 10.488281-10.488281s10.492187 4.695313 10.492187 10.488281c0 5.792969-4.699218 10.488282-10.492187 10.488282zm0-87.410156 50.65625 67.535156-36.160156 72.324218h-4.003907v-33.398437c16.386719-5.792969 24.972657-23.773437 19.179688-40.160156-5.792969-16.382813-23.773438-24.972657-40.160156-19.179688-16.386719 5.792969-24.972656 23.773438-19.179688 40.160157 3.167969 8.960937 10.21875 16.011718 19.179688 19.179687v33.398437h-4.007813l-36.15625-72.324218zm-146.507813 162.320312-3.085937 2.035156-38.632813 25.445313-3.554687-29.726563c-.195313-1.617187-.761719-3.164062-1.660156-4.519531l-11.539063-17.519531 17.519532-11.539063 11.539062 17.519531c.898438 1.355469 2.097656 2.488282 3.503906 3.304688zm-65.300781-72.8125 12.796875 19.4375-17.515625 11.539062-15.734375-23.808593zm55.984375 104.050781 26.226563-17.320312 77.148437 117.035156v114.410156l-129.652344-196.796875zm182.773438 254.414063c-8.894532 14.933594-28.207032 19.832031-43.140625 10.9375-14.929688-8.894532-19.828125-28.207032-10.933594-43.140625.0625-.105469.125-.207031.1875-.3125l79.210937-131.363281h.175782v-.285157l28.929687-47.988281 26.949219 16.277344 26.992188 16.21875zm189.949218-274.386719c-5.414062 8.9375-12.820312 16.507813-21.640624 22.109375l-18.632813 11.800781-30.417969-18.3125-30.421875-18.316406 1.730469-22.027344c1.921875-24.082031 16.589844-45.296875 38.445312-55.59375l67.132813-31.605469 1.332031 29.234376c-1.046875-.117188-2.109375-.070313-3.144531.136718l-25.40625 6.292969c-23.644531 5.773437-41.949219 24.488281-47.203125 48.25-1.265625 5.652344 2.289062 11.257813 7.941406 12.527344.75.171875 1.523438.261719 2.296875.261719 4.90625-.003907 9.15625-3.414063 10.226563-8.203126 3.546875-15.980468 15.855468-28.558593 31.75-32.457031l24.503906-6.070312 1.101562 24.125c.617188 13.285156-2.722656 26.457031-9.59375 37.847656zm0 0"/></svg>